<?xml version="1.0" standalone="no"?><!DOCTYPE svg PUBLIC "-//W3C//DTD SVG 1.1//EN" "http://www.w3.org/Graphics/SVG/1.1/DTD/svg11.dtd"><svg t="1777643373093" class="icon" viewBox="0 0 1024 1024" version="1.1" xmlns="http://www.w3.org/2000/svg" p-id="12999" xmlns:xlink="http://www.w3.org/1999/xlink" width="200" height="200"><path d="M679.424 481.792c-2.56 0-5.12-0.512-7.68-1.024-70.144-14.848-123.392-54.784-158.208-118.272-9.728-17.92-3.072-40.96 14.848-50.688 5.632-3.072 11.776-4.608 17.92-4.608 13.824 0 26.112 7.168 32.768 19.456v0.512c24.576 44.032 59.904 70.144 108.032 80.384 19.968 4.096 32.768 24.064 28.672 44.032-3.584 17.92-18.944 30.208-36.352 30.208z" fill="#a25b3f" p-id="13000"></path><path d="M752.128 1007.616c-17.92 0-35.328-4.096-52.224-11.264l-191.488-88.064c-5.632-2.56-11.776-4.096-17.92-4.096-7.168 0-13.824 1.536-19.968 5.12l-138.752 73.216c-17.92 9.216-37.888 14.336-58.368 14.336-6.144 0-11.776-0.512-17.92-1.024-32.768-4.608-61.952-22.016-81.92-48.64-19.968-26.624-28.16-59.392-23.552-92.672l25.6-176.64c2.048-13.312-2.56-26.624-11.776-35.84L35.328 509.44C17.92 491.52 6.144 468.48 2.048 443.904c-5.632-32.768 1.536-66.048 20.992-93.184 18.944-27.136 47.616-45.568 80.896-51.2l181.76-31.232c12.8-2.048 24.576-10.752 30.72-22.528l86.016-162.816c11.776-22.528 29.696-40.448 52.224-52.224 17.92-9.216 37.888-14.336 58.368-14.336 46.592 0 88.576 25.6 110.592 66.56L708.096 245.76c6.144 11.776 17.408 19.968 30.72 22.528l181.76 31.232c25.088 4.096 47.616 15.872 65.536 33.28 24.064 23.04 37.376 54.272 37.888 87.552 0.512 33.28-12.288 65.024-35.328 88.576L860.16 641.536c-9.216 9.728-13.824 23.04-11.776 35.84l27.136 187.392c3.584 24.064 0 48.128-10.24 69.632-19.968 44.544-64.512 73.216-113.152 73.216z m-261.632-185.344c17.92 0 35.84 3.584 52.224 11.264l191.488 88.064c5.632 2.56 11.776 4.096 17.92 4.096 2.048 0 4.096 0 6.144-0.512 11.264-1.536 21.504-7.68 28.16-16.896s9.728-20.48 8.192-31.744l-27.136-187.392c-5.632-37.888 7.168-77.312 33.792-104.448l128.512-132.096c6.144-6.144 10.24-13.824 11.776-22.528 2.048-11.264-0.512-22.528-7.168-32.256-6.656-9.216-16.384-15.36-27.648-17.408l-181.76-31.232c-37.888-6.656-71.168-30.72-89.088-64.512l-86.016-162.816c-4.096-7.68-10.24-13.824-17.92-17.92l-3.072-1.536c-5.12-2.048-10.752-3.584-16.896-3.584-15.872 0-30.72 8.704-37.888 23.04L388.096 284.16c-17.92 33.792-51.2 58.368-89.088 64.512l-181.76 31.232c-8.704 1.536-16.384 5.632-22.528 11.776-8.192 8.192-12.8 18.944-12.8 30.208s4.096 22.528 12.288 30.72l128.512 132.096c26.624 27.648 39.424 66.56 33.792 104.448l-25.6 176.64c-1.536 9.216 0.512 17.92 4.608 26.112 7.68 14.336 22.016 23.04 37.888 23.04 7.168 0 13.824-1.536 19.968-5.12l138.752-73.216c17.92-9.216 38.4-14.336 58.368-14.336z" fill="#a25b3f" p-id="13001"></path></svg>