<?xml version="1.0" standalone="no"?><!DOCTYPE svg PUBLIC "-//W3C//DTD SVG 1.1//EN" "http://www.w3.org/Graphics/SVG/1.1/DTD/svg11.dtd"><svg t="1777643402920" class="icon" viewBox="0 0 1024 1024" version="1.1" xmlns="http://www.w3.org/2000/svg" p-id="13241" xmlns:xlink="http://www.w3.org/1999/xlink" width="200" height="200"><path d="M977.1 453c28.5-27.76 12.78-76.16-26.59-81.88l-264.94-38.51a16 16 0 0 1-12.05-8.75L555 83.89c-17.61-35.67-68.47-35.67-86.08 0l-118.48 240a16 16 0 0 1-12.05 8.75l-264.9 38.45C34.12 376.81 18.4 425.21 46.9 453l191.69 186.74a16 16 0 0 1 4.6 14.17l-45.25 263.73c-6.73 39.21 34.42 69.11 69.64 50.61l237-124.54a16 16 0 0 1 14.88 0l237 124.54c35.22 18.5 76.37-11.4 69.64-50.61l-45.29-263.73a16 16 0 0 1 4.6-14.17zM673.86 571c-4.76 50-22.76 94-52.55 129a32 32 0 0 1-49-0.12 32.06 32.06 0 0 1 0.33-41.33c21-24.68 33.56-55.4 37.36-91.65a223.71 223.71 0 0 0 0.59-38.68 32.07 32.07 0 0 1 24.15-33.43 32 32 0 0 1 39.68 28.69 289.3 289.3 0 0 1-0.56 47.52z" fill="#a25b3f" p-id="13242"></path></svg>