<?xml version="1.0" standalone="no"?><!DOCTYPE svg PUBLIC "-//W3C//DTD SVG 1.1//EN" "http://www.w3.org/Graphics/SVG/1.1/DTD/svg11.dtd"><svg t="1777643626553" class="icon" viewBox="0 0 1024 1024" version="1.1" xmlns="http://www.w3.org/2000/svg" p-id="15247" xmlns:xlink="http://www.w3.org/1999/xlink" width="200" height="200"><path d="M978.359727 445.198908c-25.076263 0-45.546682 20.982179-44.52316 46.058442 0.51176 6.652886 0.51176 13.817533 0.51176 20.470419 0 240.527421-202.145386 434.9964-445.74337 422.202388-214.427637-11.25873-387.914437-184.74553-399.173167-399.173167-12.794012-243.597984 181.163207-445.74337 422.202388-445.74337 6.652886 0 13.817533 0 20.470419 0.511761 25.076263 1.023521 46.058442-18.935137 46.058443-44.523161 0-24.052742-18.935137-43.49964-42.98788-44.523161-25.588024-1.023521-52.199568-0.51176-78.811112 2.558802C209.695501 29.137645 15.226522 232.818313 0.897229 481.022141c-17.911616 307.056282 234.898056 560.377715 542.466099 541.954338 248.203828-14.841054 451.372735-208.798272 477.472519-455.978579 2.558802-26.611544 3.582323-52.711328 2.558802-78.811113-2.047042-24.052742-21.49394-42.98788-45.034922-42.987879z" p-id="15248" fill="#a25b3f"></path><path d="M1017.253523 194.948038l-89.046322 154.039901c-12.282251 21.49394-39.405556 28.658586-60.899496 16.376335-10.74697-6.141126-17.911616-15.864575-20.470418-27.123304-3.070563-11.25873-1.535281-23.029221 4.605844-33.776192l38.893796-67.552382c-335.714869 51.687808-347.99712 325.99142-347.99712 337.761911-0.51176 22.0057-18.935137 39.917317-40.940838 39.917317h-1.023521c-22.517461-0.51176-40.429077-19.446898-39.917317-41.964359 0-3.582323 2.558802-93.652166 57.828933-189.863135 48.617245-84.952238 147.387016-190.886656 346.461839-225.174607l-62.434777-35.823233c-21.49394-12.282251-28.658586-39.405556-16.376335-60.899496 6.141126-10.74697 15.864575-17.911616 27.123305-20.982179 11.25873-3.070563 23.029221-1.535281 33.776191 4.605844L1000.877188 133.536781c10.74697 6.141126 17.911616 15.864575 20.982179 27.123305 3.070563 11.25873 1.535281 23.540982-4.605844 34.287952z" p-id="15249" fill="#a25b3f"></path></svg>