<?xml version="1.0" standalone="no"?><!DOCTYPE svg PUBLIC "-//W3C//DTD SVG 1.1//EN" "http://www.w3.org/Graphics/SVG/1.1/DTD/svg11.dtd"><svg t="1777642951935" class="icon" viewBox="0 0 1024 1024" version="1.1" xmlns="http://www.w3.org/2000/svg" p-id="10911" xmlns:xlink="http://www.w3.org/1999/xlink" width="200" height="200"><path d="M53.333333 512C53.333333 258.986667 258.986667 53.333333 512 53.333333S970.666667 258.986667 970.666667 512 765.013333 970.666667 512 970.666667 53.333333 765.013333 53.333333 512z m64 0c0 217.6 177.066667 394.666667 394.666667 394.666667s394.666667-177.066667 394.666667-394.666667S729.6 117.333333 512 117.333333 117.333333 294.4 117.333333 512z" fill="#ffffff" p-id="10912"></path><path d="M654.08 674.986667l-132.266667-78.933334c-32.853333-19.626667-57.173333-62.72-57.173333-100.693333v-174.933333c0-17.493333 14.506667-32 32-32s32 14.506667 32 32v174.933333c0 15.36 12.8 37.973333 26.026667 45.653333l132.266666 78.933334c15.36 8.96 20.053333 28.586667 11.093334 43.946666a32.853333 32.853333 0 0 1-27.733334 15.786667 28.586667 28.586667 0 0 1-16.213333-4.693333z" fill="#ffffff" p-id="10913"></path></svg>